<svg xmlns="http://www.w3.org/2000/svg" viewBox="0 0 32 32">
  <path d="M1,16 C6,7 12,4 16,4 C20,4 26,7 31,16 C26,25 20,28 16,28 C12,28 6,25 1,16 Z" fill="#080e1a"/>
  <path d="M1,16 C6,7 12,4 16,4 C20,4 26,7 31,16 C26,25 20,28 16,28 C12,28 6,25 1,16 Z" fill="none" stroke="#3b82f6" stroke-width="2"/>
  <circle cx="16" cy="16" r="7" fill="none" stroke="#3b82f6" stroke-width="1.5"/>
  <line x1="9" y1="16" x2="23" y2="16" stroke="#3b82f6" stroke-width="0.7" opacity="0.6"/>
  <line x1="16" y1="9" x2="16" y2="23" stroke="#3b82f6" stroke-width="0.7" opacity="0.6"/>
  <line x1="11.1" y1="11.1" x2="20.9" y2="20.9" stroke="#3b82f6" stroke-width="0.5" opacity="0.35"/>
  <line x1="20.9" y1="11.1" x2="11.1" y2="20.9" stroke="#3b82f6" stroke-width="0.5" opacity="0.35"/>
  <circle cx="16" cy="16" r="3" fill="#3b82f6"/>
  <circle cx="14.5" cy="14.5" r="1" fill="white" opacity="0.5"/>
  <circle cx="3.5" cy="16" r="1.5" fill="#3b82f6" opacity="0.8"/>
  <circle cx="28.5" cy="16" r="1.5" fill="#3b82f6" opacity="0.8"/>
</svg>
